<svg viewBox="0 0 800 400" xmlns="http://www.w3.org/2000/svg" style="background-color:#1e1e1e; font-family:sans-serif;"><line x1="40" y1="360" x2="760" y2="360" stroke="#444" stroke-width="1" /><text x="40" y="380" fill="#888" font-size="12">Tick -600</text><text x="760" y="380" fill="#888" font-size="12" text-anchor="end">Tick 600</text><rect x="40.00" y="360.00" width="30.00" height="0.00" fill="rgba(0, 200, 255, 0.3)" stroke="none" /><line x1="40.00" y1="360.00" x2="70.00" y2="360.00" stroke="#00ffff" stroke-width="2" /><rect x="70.00" y="360.00" width="30.00" height="0.00" fill="rgba(0, 200, 255, 0.3)" stroke="none" /><line x1="70.00" y1="360.00" x2="100.00" y2="360.00" stroke="#00ffff" stroke-width="2" /><rect x="100.00" y="40.00" width="30.00" height="320.00" fill="rgba(0, 200, 255, 1)" stroke="none" /><line x1="100.00" y1="40.00" x2="130.00" y2="40.00" stroke="#00ffff" stroke-width="2" /><rect x="130.00" y="40.00" width="30.00" height="320.00" fill="rgba(0, 200, 255, 1)" stroke="none" /><line x1="130.00" y1="40.00" x2="160.00" y2="40.00" stroke="#00ffff" stroke-width="2" /><rect x="160.00" y="40.00" width="30.00" height="320.00" fill="rgba(0, 200, 255, 1)" stroke="none" /><line x1="160.00" y1="40.00" x2="190.00" y2="40.00" stroke="#00ffff" stroke-width="2" /><rect x="190.00" y="40.00" width="30.00" height="320.00" fill="rgba(0, 200, 255, 1)" stroke="none" /><line x1="190.00" y1="40.00" x2="220.00" y2="40.00" stroke="#00ffff" stroke-width="2" /><rect x="220.00" y="40.00" width="30.00" height="320.00" fill="rgba(0, 200, 255, 1)" stroke="none" /><line x1="220.00" y1="40.00" x2="250.00" y2="40.00" stroke="#00ffff" stroke-width="2" /><rect x="250.00" y="40.00" width="30.00" height="320.00" fill="rgba(0, 200, 255, 1)" stroke="none" /><line x1="250.00" y1="40.00" x2="280.00" y2="40.00" stroke="#00ffff" stroke-width="2" /><rect x="280.00" y="360.00" width="30.00" height="0.00" fill="rgba(0, 200, 255, 0.3)" stroke="none" /><line x1="280.00" y1="360.00" x2="310.00" y2="360.00" stroke="#00ffff" stroke-width="2" /><rect x="310.00" y="360.00" width="30.00" height="0.00" fill="rgba(0, 200, 255, 0.3)" stroke="none" /><line x1="310.00" y1="360.00" x2="340.00" y2="360.00" stroke="#00ffff" stroke-width="2" /><rect x="340.00" y="341.09" width="30.00" height="18.91" fill="rgba(0, 200, 255, 0.3413750772461731)" stroke="none" /><line x1="340.00" y1="341.09" x2="370.00" y2="341.09" stroke="#00ffff" stroke-width="2" /><rect x="370.00" y="341.09" width="30.00" height="18.91" fill="rgba(0, 200, 255, 0.3413750772461731)" stroke="none" /><line x1="370.00" y1="341.09" x2="400.00" y2="341.09" stroke="#00ffff" stroke-width="2" /><rect x="400.00" y="341.09" width="30.00" height="18.91" fill="rgba(0, 200, 255, 0.3413750772461731)" stroke="none" /><line x1="400.00" y1="341.09" x2="430.00" y2="341.09" stroke="#00ffff" stroke-width="2" /><rect x="430.00" y="341.09" width="30.00" height="18.91" fill="rgba(0, 200, 255, 0.3413750772461731)" stroke="none" /><line x1="430.00" y1="341.09" x2="460.00" y2="341.09" stroke="#00ffff" stroke-width="2" /><rect x="460.00" y="360.00" width="30.00" height="0.00" fill="rgba(0, 200, 255, 0.3)" stroke="none" /><line x1="460.00" y1="360.00" x2="490.00" y2="360.00" stroke="#00ffff" stroke-width="2" /><rect x="490.00" y="360.00" width="30.00" height="0.00" fill="rgba(0, 200, 255, 0.3)" stroke="none" /><line x1="490.00" y1="360.00" x2="520.00" y2="360.00" stroke="#00ffff" stroke-width="2" /><rect x="520.00" y="40.00" width="30.00" height="320.00" fill="rgba(0, 200, 255, 1)" stroke="none" /><line x1="520.00" y1="40.00" x2="550.00" y2="40.00" stroke="#00ffff" stroke-width="2" /><rect x="550.00" y="40.00" width="30.00" height="320.00" fill="rgba(0, 200, 255, 1)" stroke="none" /><line x1="550.00" y1="40.00" x2="580.00" y2="40.00" stroke="#00ffff" stroke-width="2" /><rect x="580.00" y="40.00" width="30.00" height="320.00" fill="rgba(0, 200, 255, 1)" stroke="none" /><line x1="580.00" y1="40.00" x2="610.00" y2="40.00" stroke="#00ffff" stroke-width="2" /><rect x="610.00" y="40.00" width="30.00" height="320.00" fill="rgba(0, 200, 255, 1)" stroke="none" /><line x1="610.00" y1="40.00" x2="640.00" y2="40.00" stroke="#00ffff" stroke-width="2" /><rect x="640.00" y="40.00" width="30.00" height="320.00" fill="rgba(0, 200, 255, 1)" stroke="none" /><line x1="640.00" y1="40.00" x2="670.00" y2="40.00" stroke="#00ffff" stroke-width="2" /><rect x="670.00" y="40.00" width="30.00" height="320.00" fill="rgba(0, 200, 255, 1)" stroke="none" /><line x1="670.00" y1="40.00" x2="700.00" y2="40.00" stroke="#00ffff" stroke-width="2" /><rect x="700.00" y="360.00" width="30.00" height="0.00" fill="rgba(0, 200, 255, 0.3)" stroke="none" /><line x1="700.00" y1="360.00" x2="730.00" y2="360.00" stroke="#00ffff" stroke-width="2" /><rect x="730.00" y="360.00" width="30.00" height="0.00" fill="rgba(0, 200, 255, 0.3)" stroke="none" /><line x1="730.00" y1="360.00" x2="760.00" y2="360.00" stroke="#00ffff" stroke-width="2" /></svg>