<svg viewBox="0 0 800 400" xmlns="http://www.w3.org/2000/svg" style="background-color:#1e1e1e; font-family:sans-serif;"><line x1="40" y1="360" x2="760" y2="360" stroke="#444" stroke-width="1" /><text x="40" y="380" fill="#888" font-size="12">Tick -1200</text><text x="760" y="380" fill="#888" font-size="12" text-anchor="end">Tick 1200</text><rect x="40.00" y="353.58" width="15.00" height="6.42" fill="rgba(0, 200, 255, 0.31404082337394573)" stroke="none" /><line x1="40.00" y1="353.58" x2="55.00" y2="353.58" stroke="#00ffff" stroke-width="2" /><rect x="55.00" y="353.58" width="15.00" height="6.42" fill="rgba(0, 200, 255, 0.31404082337394573)" stroke="none" /><line x1="55.00" y1="353.58" x2="70.00" y2="353.58" stroke="#00ffff" stroke-width="2" /><rect x="70.00" y="353.58" width="15.00" height="6.42" fill="rgba(0, 200, 255, 0.31404082337394573)" stroke="none" /><line x1="70.00" y1="353.58" x2="85.00" y2="353.58" stroke="#00ffff" stroke-width="2" /><rect x="85.00" y="353.58" width="15.00" height="6.42" fill="rgba(0, 200, 255, 0.31404082337394573)" stroke="none" /><line x1="85.00" y1="353.58" x2="100.00" y2="353.58" stroke="#00ffff" stroke-width="2" /><rect x="100.00" y="40.00" width="15.00" height="320.00" fill="rgba(0, 200, 255, 1)" stroke="none" /><line x1="100.00" y1="40.00" x2="115.00" y2="40.00" stroke="#00ffff" stroke-width="2" /><rect x="115.00" y="40.00" width="15.00" height="320.00" fill="rgba(0, 200, 255, 1)" stroke="none" /><line x1="115.00" y1="40.00" x2="130.00" y2="40.00" stroke="#00ffff" stroke-width="2" /><rect x="130.00" y="353.58" width="15.00" height="6.42" fill="rgba(0, 200, 255, 0.31404082337394573)" stroke="none" /><line x1="130.00" y1="353.58" x2="145.00" y2="353.58" stroke="#00ffff" stroke-width="2" /><rect x="145.00" y="353.58" width="15.00" height="6.42" fill="rgba(0, 200, 255, 0.31404082337394573)" stroke="none" /><line x1="145.00" y1="353.58" x2="160.00" y2="353.58" stroke="#00ffff" stroke-width="2" /><rect x="160.00" y="43.12" width="15.00" height="316.88" fill="rgba(0, 200, 255, 0.9931749316946923)" stroke="none" /><line x1="160.00" y1="43.12" x2="175.00" y2="43.12" stroke="#00ffff" stroke-width="2" /><rect x="175.00" y="43.12" width="15.00" height="316.88" fill="rgba(0, 200, 255, 0.9931749316946923)" stroke="none" /><line x1="175.00" y1="43.12" x2="190.00" y2="43.12" stroke="#00ffff" stroke-width="2" /><rect x="190.00" y="353.58" width="15.00" height="6.42" fill="rgba(0, 200, 255, 0.31404082337394573)" stroke="none" /><line x1="190.00" y1="353.58" x2="205.00" y2="353.58" stroke="#00ffff" stroke-width="2" /><rect x="205.00" y="353.58" width="15.00" height="6.42" fill="rgba(0, 200, 255, 0.31404082337394573)" stroke="none" /><line x1="205.00" y1="353.58" x2="220.00" y2="353.58" stroke="#00ffff" stroke-width="2" /><rect x="220.00" y="46.21" width="15.00" height="313.79" fill="rgba(0, 200, 255, 0.9864177705761374)" stroke="none" /><line x1="220.00" y1="46.21" x2="235.00" y2="46.21" stroke="#00ffff" stroke-width="2" /><rect x="235.00" y="46.21" width="15.00" height="313.79" fill="rgba(0, 200, 255, 0.9864177705761374)" stroke="none" /><line x1="235.00" y1="46.21" x2="250.00" y2="46.21" stroke="#00ffff" stroke-width="2" /><rect x="250.00" y="353.58" width="15.00" height="6.42" fill="rgba(0, 200, 255, 0.31404082337394573)" stroke="none" /><line x1="250.00" y1="353.58" x2="265.00" y2="353.58" stroke="#00ffff" stroke-width="2" /><rect x="265.00" y="353.58" width="15.00" height="6.42" fill="rgba(0, 200, 255, 0.31404082337394573)" stroke="none" /><line x1="265.00" y1="353.58" x2="280.00" y2="353.58" stroke="#00ffff" stroke-width="2" /><rect x="280.00" y="49.27" width="15.00" height="310.73" fill="rgba(0, 200, 255, 0.9797278409906527)" stroke="none" /><line x1="280.00" y1="49.27" x2="295.00" y2="49.27" stroke="#00ffff" stroke-width="2" /><rect x="295.00" y="49.27" width="15.00" height="310.73" fill="rgba(0, 200, 255, 0.9797278409906527)" stroke="none" /><line x1="295.00" y1="49.27" x2="310.00" y2="49.27" stroke="#00ffff" stroke-width="2" /><rect x="310.00" y="353.58" width="15.00" height="6.42" fill="rgba(0, 200, 255, 0.31404082337394573)" stroke="none" /><line x1="310.00" y1="353.58" x2="325.00" y2="353.58" stroke="#00ffff" stroke-width="2" /><rect x="325.00" y="353.58" width="15.00" height="6.42" fill="rgba(0, 200, 255, 0.31404082337394573)" stroke="none" /><line x1="325.00" y1="353.58" x2="340.00" y2="353.58" stroke="#00ffff" stroke-width="2" /><rect x="340.00" y="52.30" width="15.00" height="307.70" fill="rgba(0, 200, 255, 0.9731044740038743)" stroke="none" /><line x1="340.00" y1="52.30" x2="355.00" y2="52.30" stroke="#00ffff" stroke-width="2" /><rect x="355.00" y="52.30" width="15.00" height="307.70" fill="rgba(0, 200, 255, 0.9731044740038743)" stroke="none" /><line x1="355.00" y1="52.30" x2="370.00" y2="52.30" stroke="#00ffff" stroke-width="2" /><rect x="370.00" y="353.58" width="15.00" height="6.42" fill="rgba(0, 200, 255, 0.31404082337394573)" stroke="none" /><line x1="370.00" y1="353.58" x2="385.00" y2="353.58" stroke="#00ffff" stroke-width="2" /><rect x="385.00" y="353.58" width="15.00" height="6.42" fill="rgba(0, 200, 255, 0.31404082337394573)" stroke="none" /><line x1="385.00" y1="353.58" x2="400.00" y2="353.58" stroke="#00ffff" stroke-width="2" /><rect x="400.00" y="53.80" width="15.00" height="306.20" fill="rgba(0, 200, 255, 0.9698175442666421)" stroke="none" /><line x1="400.00" y1="53.80" x2="415.00" y2="53.80" stroke="#00ffff" stroke-width="2" /><rect x="415.00" y="53.80" width="15.00" height="306.20" fill="rgba(0, 200, 255, 0.9698175442666421)" stroke="none" /><line x1="415.00" y1="53.80" x2="430.00" y2="53.80" stroke="#00ffff" stroke-width="2" /><rect x="430.00" y="353.58" width="15.00" height="6.42" fill="rgba(0, 200, 255, 0.31404082337394573)" stroke="none" /><line x1="430.00" y1="353.58" x2="445.00" y2="353.58" stroke="#00ffff" stroke-width="2" /><rect x="445.00" y="353.58" width="15.00" height="6.42" fill="rgba(0, 200, 255, 0.31404082337394573)" stroke="none" /><line x1="445.00" y1="353.58" x2="460.00" y2="353.58" stroke="#00ffff" stroke-width="2" /><rect x="460.00" y="50.78" width="15.00" height="309.22" fill="rgba(0, 200, 255, 0.9764078787192823)" stroke="none" /><line x1="460.00" y1="50.78" x2="475.00" y2="50.78" stroke="#00ffff" stroke-width="2" /><rect x="475.00" y="50.78" width="15.00" height="309.22" fill="rgba(0, 200, 255, 0.9764078787192823)" stroke="none" /><line x1="475.00" y1="50.78" x2="490.00" y2="50.78" stroke="#00ffff" stroke-width="2" /><rect x="490.00" y="353.58" width="15.00" height="6.42" fill="rgba(0, 200, 255, 0.31404082337394573)" stroke="none" /><line x1="490.00" y1="353.58" x2="505.00" y2="353.58" stroke="#00ffff" stroke-width="2" /><rect x="505.00" y="353.58" width="15.00" height="6.42" fill="rgba(0, 200, 255, 0.31404082337394573)" stroke="none" /><line x1="505.00" y1="353.58" x2="520.00" y2="353.58" stroke="#00ffff" stroke-width="2" /><rect x="520.00" y="47.74" width="15.00" height="312.26" fill="rgba(0, 200, 255, 0.9830644438062248)" stroke="none" /><line x1="520.00" y1="47.74" x2="535.00" y2="47.74" stroke="#00ffff" stroke-width="2" /><rect x="535.00" y="47.74" width="15.00" height="312.26" fill="rgba(0, 200, 255, 0.9830644438062248)" stroke="none" /><line x1="535.00" y1="47.74" x2="550.00" y2="47.74" stroke="#00ffff" stroke-width="2" /><rect x="550.00" y="353.58" width="15.00" height="6.42" fill="rgba(0, 200, 255, 0.31404082337394573)" stroke="none" /><line x1="550.00" y1="353.58" x2="565.00" y2="353.58" stroke="#00ffff" stroke-width="2" /><rect x="565.00" y="353.58" width="15.00" height="6.42" fill="rgba(0, 200, 255, 0.31404082337394573)" stroke="none" /><line x1="565.00" y1="353.58" x2="580.00" y2="353.58" stroke="#00ffff" stroke-width="2" /><rect x="580.00" y="44.67" width="15.00" height="315.33" fill="rgba(0, 200, 255, 0.9897879051242513)" stroke="none" /><line x1="580.00" y1="44.67" x2="595.00" y2="44.67" stroke="#00ffff" stroke-width="2" /><rect x="595.00" y="44.67" width="15.00" height="315.33" fill="rgba(0, 200, 255, 0.9897879051242513)" stroke="none" /><line x1="595.00" y1="44.67" x2="610.00" y2="44.67" stroke="#00ffff" stroke-width="2" /><rect x="610.00" y="353.58" width="15.00" height="6.42" fill="rgba(0, 200, 255, 0.31404082337394573)" stroke="none" /><line x1="610.00" y1="353.58" x2="625.00" y2="353.58" stroke="#00ffff" stroke-width="2" /><rect x="625.00" y="353.58" width="15.00" height="6.42" fill="rgba(0, 200, 255, 0.31404082337394573)" stroke="none" /><line x1="625.00" y1="353.58" x2="640.00" y2="353.58" stroke="#00ffff" stroke-width="2" /><rect x="640.00" y="41.56" width="15.00" height="318.44" fill="rgba(0, 200, 255, 0.9965789349567555)" stroke="none" /><line x1="640.00" y1="41.56" x2="655.00" y2="41.56" stroke="#00ffff" stroke-width="2" /><rect x="655.00" y="41.56" width="15.00" height="318.44" fill="rgba(0, 200, 255, 0.9965789349567555)" stroke="none" /><line x1="655.00" y1="41.56" x2="670.00" y2="41.56" stroke="#00ffff" stroke-width="2" /><rect x="670.00" y="353.58" width="15.00" height="6.42" fill="rgba(0, 200, 255, 0.31404082337394573)" stroke="none" /><line x1="670.00" y1="353.58" x2="685.00" y2="353.58" stroke="#00ffff" stroke-width="2" /><rect x="685.00" y="353.58" width="15.00" height="6.42" fill="rgba(0, 200, 255, 0.31404082337394573)" stroke="none" /><line x1="685.00" y1="353.58" x2="700.00" y2="353.58" stroke="#00ffff" stroke-width="2" /><rect x="700.00" y="353.58" width="15.00" height="6.42" fill="rgba(0, 200, 255, 0.31404082337394573)" stroke="none" /><line x1="700.00" y1="353.58" x2="715.00" y2="353.58" stroke="#00ffff" stroke-width="2" /><rect x="715.00" y="353.58" width="15.00" height="6.42" fill="rgba(0, 200, 255, 0.31404082337394573)" stroke="none" /><line x1="715.00" y1="353.58" x2="730.00" y2="353.58" stroke="#00ffff" stroke-width="2" /><rect x="730.00" y="353.58" width="15.00" height="6.42" fill="rgba(0, 200, 255, 0.31404082337394573)" stroke="none" /><line x1="730.00" y1="353.58" x2="745.00" y2="353.58" stroke="#00ffff" stroke-width="2" /><rect x="745.00" y="353.58" width="15.00" height="6.42" fill="rgba(0, 200, 255, 0.31404082337394573)" stroke="none" /><line x1="745.00" y1="353.58" x2="760.00" y2="353.58" stroke="#00ffff" stroke-width="2" /></svg>